<?xml version="1.0" encoding="UTF-8"?>
<svg id="Camada_2" data-name="Camada 2" xmlns="http://www.w3.org/2000/svg" viewBox="0 0 60.04 68.31">
  <g id="Camada_1-2" data-name="Camada 1">
    <path d="M48.03,44.29c-3.22,0-6.15,1.28-8.31,3.35l-12.84-7.96c.73-1.7,1.14-3.57,1.14-5.53s-.41-3.83-1.14-5.53l12.84-7.96c2.16,2.07,5.09,3.35,8.31,3.35,6.62,0,12.01-5.39,12.01-12.01S54.65,0,48.03,0s-12.01,5.39-12.01,12.01c0,1.95.47,3.8,1.3,5.43l-12.54,7.77c-2.57-3.09-6.45-5.07-10.77-5.07-7.72,0-14.01,6.28-14.01,14.01s6.28,14.01,14.01,14.01c4.33,0,8.2-1.97,10.77-5.07l12.54,7.77c-.83,1.63-1.3,3.48-1.3,5.43,0,6.62,5.39,12.01,12.01,12.01s12.01-5.39,12.01-12.01-5.39-12.01-12.01-12.01Z" style="fill: #ddd;"/>
  </g>
</svg>