<?xml version="1.0" encoding="UTF-8"?>
<svg id="Camada_2" data-name="Camada 2" xmlns="http://www.w3.org/2000/svg" viewBox="0 0 298.67 362.67">
  <g id="Camada_1-2" data-name="Camada 1">
    <path d="M247.25,128h-33.92V21.33c0-11.73-9.6-21.33-21.33-21.33h-85.33c-11.73,0-21.33,9.6-21.33,21.33v106.67h-33.92c-18.99,0-28.59,23.04-15.15,36.48l97.92,97.92c8.32,8.32,21.76,8.32,30.08,0l97.92-97.92c13.44-13.44,4.05-36.48-14.93-36.48ZM0,341.33c0,11.73,9.6,21.33,21.33,21.33h256c11.73,0,21.33-9.6,21.33-21.33s-9.6-21.33-21.33-21.33H21.33c-11.73,0-21.33,9.6-21.33,21.33Z" style="fill: #ccc;"/>
  </g>
</svg>