<?xml version="1.0" encoding="UTF-8"?>
<svg id="Camada_2" data-name="Camada 2" xmlns="http://www.w3.org/2000/svg" xmlns:xlink="http://www.w3.org/1999/xlink" viewBox="0 0 500 500">
  <defs>
    <clipPath id="clippath">
      <rect width="500" height="500" rx="121.51" ry="121.51" style="fill: none; stroke-width: 0px;"/>
    </clipPath>
  </defs>
  <g id="Camada_1-2" data-name="Camada 1">
    <g>
      <rect width="500" height="500" rx="121.51" ry="121.51" style="fill: #1a5d87; stroke-width: 0px;"/>
      <g style="clip-path: url(#clippath);">
        <path d="M422.39,134.05H78.63l124.53,128.84,35.94,36.16c-19.55-4.44-20.76-7.21-29.43-14.24-4.54-3.69-13.33-13.71-26.66-27.24-41.63-42.24-112.26-113.9-112.26-113.9v212.05l8.87,8.81-.99,1.03,188.57,192.82c4.74.24,9.5.37,14.3.37,151.76,0,274.79-122.24,274.79-273.03,0-4.53-.12-9.03-.34-13.5l-133.56-138.16Z" style="fill: #0d354f; stroke-width: 0px;"/>
      </g>
      <g>
        <polygon points="70.75 143.68 70.75 356.09 174.34 249.46 70.75 143.68" style="fill: #ddd; stroke-width: 0px;"/>
        <polygon points="429.25 143.68 429.25 356.09 326.18 249.89 429.25 143.68" style="fill: #ddd; stroke-width: 0px;"/>
        <path d="M78.6,134.05h342.14l-134.46,140.01c-9.57,9.96-22.79,15.6-36.6,15.6s-27.03-5.63-36.6-15.6L78.6,134.05Z" style="fill: #ddd; stroke-width: 0px;"/>
        <path d="M294.02,281.51c-11.54,12.01-27.7,18.9-44.36,18.9s-32.82-6.89-44.36-18.9l-22.81-23.75-103.9,108.19h342.14l-103.9-108.19-22.81,23.75Z" style="fill: #ddd; stroke-width: 0px;"/>
      </g>
    </g>
  </g>
</svg>