<?xml version="1.0" encoding="UTF-8"?>
<svg id="Camada_2" data-name="Camada 2" xmlns="http://www.w3.org/2000/svg" viewBox="0 0 512 512">
  <g id="Camada_1-2" data-name="Camada 1">
    <g>
      <g>
        <path d="M384,512H128C57.31,512,0,454.69,0,384V128C0,57.31,57.31,0,128,0h256C454.69,0,512,57.31,512,128v256c0,70.69-57.31,128-128,128" style="fill: #ff3a55; fill-rule: evenodd; stroke-width: 0px;"/>
        <path d="M240,144h144c39.77,0,72-32.24,72-72.01,0-36.91-27.92-67.85-64.64-71.62-2.45-.14-4.87-.37-7.36-.37H128C57.31,0,0,57.31,0,128v256c0-132.55,107.45-240,240-240" style="fill: #ff796c; fill-rule: evenodd; stroke-width: 0px;"/>
        <path d="M384,256c-70.69,0-128,57.31-128,128s57.31,128,128,128,128-57.31,128-128V128c0,70.69-57.31,128-128,128" style="fill: #e00047; fill-rule: evenodd; stroke-width: 0px;"/>
      </g>
      <circle cx="356" cy="156" r="20" style="fill: #fff; stroke-width: 0px;"/>
      <path d="M256,192c35.35,0,64,28.65,64,64s-28.65,64-64,64-64-28.65-64-64c.02-35.34,28.66-63.98,64-64ZM256,160c53.02,0,96,42.98,96,96s-42.98,96-96,96-96-42.98-96-96c.03-53.01,42.99-95.97,96-96Z" style="fill: #fff; fill-rule: evenodd; stroke-width: 0px;"/>
      <path d="M416,176c0-44.18-35.82-80-80-80h-160c-44.18,0-80,35.82-80,80v160c0,44.18,35.82,80,80,80h160c44.18,0,80-35.82,80-80v-160ZM448,176c0-61.86-50.14-112-112-112h-160c-61.86,0-112,50.14-112,112v160c0,61.86,50.14,112,112,112h160c61.86,0,112-50.14,112-112v-160Z" style="fill: #fff; fill-rule: evenodd; stroke-width: 0px;"/>
    </g>
  </g>
</svg>