<?xml version="1.0" encoding="UTF-8"?>
<svg id="Camada_2" data-name="Camada 2" xmlns="http://www.w3.org/2000/svg" viewBox="0 0 500 500">
  <g id="Camada_1-2" data-name="Camada 1">
    <g>
      <g>
        <path d="M375,500H125C55.97,500,0,444.03,0,375V125C0,55.97,55.97,0,125,0h250C444.04,0,500,55.96,500,125v250c0,69.04-55.96,125-125,125" style="fill: #2864b4; fill-rule: evenodd; stroke-width: 0px;"/>
        <path d="M234.38,140.63h140.62c38.84,0,70.32-31.49,70.31-70.32,0-36.05-27.27-66.26-63.13-69.94-2.39-.13-4.76-.36-7.19-.36H125C55.97,0,0,55.97,0,125v250c0-129.44,104.93-234.37,234.38-234.38" style="fill: #417dcd; fill-rule: evenodd; stroke-width: 0px;"/>
        <path d="M375,250c-69.04,0-125,55.96-125,125s55.96,125,125,125,125-55.96,125-125V125c0,69.04-55.96,125-125,125" style="fill: #0f4b9b; fill-rule: evenodd; stroke-width: 0px;"/>
      </g>
      <rect x="93.75" y="195.31" width="62.5" height="210.94" rx="15.62" ry="15.62" style="fill: #fff; stroke-width: 0px;"/>
      <circle cx="125" cy="125" r="39.06" style="fill: #fff; stroke-width: 0px;"/>
      <path d="M265.62,223.75c12.82-22.42,36.67-36.25,62.5-36.25,39.74,0,78.12,23.44,78.12,85.94v117.19c0,8.63-6.99,15.62-15.62,15.62h-31.26c-8.63,0-15.62-6.99-15.62-15.62h0v-109.38c0-21.57-17.49-39.06-39.06-39.06s-39.06,17.49-39.06,39.06v109.38c0,8.63-6.99,15.62-15.62,15.62h-31.26c-8.63,0-15.62-6.99-15.62-15.62h0v-179.7c0-8.63,6.99-15.62,15.62-15.62h31.26c8.63,0,15.62,6.99,15.62,15.62h0v12.82Z" style="fill: #fff; fill-rule: evenodd; stroke-width: 0px;"/>
    </g>
  </g>
</svg>