<?xml version="1.0" encoding="UTF-8"?>
<svg id="Camada_2" data-name="Camada 2" xmlns="http://www.w3.org/2000/svg" viewBox="0 0 500 500">
  <g id="Camada_1-2" data-name="Camada 1">
    <g>
      <rect width="500" height="500" rx="107.07" ry="107.07" style="fill: #f04f08; stroke-width: 0px;"/>
      <g>
        <path d="M160.45,83.29c-40.2,35.57-57.56,92.93-47.95,145.33,8.5,54.19,44.13,105.25,73.28,154.25,8.88,14.69,18.01,30.32,26.86,44.46,12.84,18.77,29.5,49.94,53.75,40.82,26.16-13.43,43.61-55.16,65.63-88.85,34.25-57.48,73.75-112.61,73.75-180.41v-.62c.12-128.79-147.39-200.85-245.33-114.98ZM257.84,240.91c-30.26,0-54.81-24.55-54.81-54.81s24.55-54.84,54.81-54.84,54.81,24.55,54.81,54.84-24.54,54.81-54.81,54.81Z" style="fill: #f19e7e; stroke-width: 0px;"/>
        <path d="M152.6,75.44c-40.2,35.57-57.56,92.93-47.95,145.33,8.5,54.19,44.13,105.25,73.28,154.25,8.88,14.69,18.01,30.32,26.86,44.46,12.84,18.77,29.5,49.94,53.75,40.82,26.16-13.43,43.61-55.16,65.63-88.85,34.25-57.48,73.75-112.61,73.75-180.41v-.62c.12-128.79-147.39-200.85-245.33-114.98ZM249.99,233.06c-30.26,0-54.81-24.55-54.81-54.81s24.55-54.84,54.81-54.84,54.81,24.55,54.81,54.84-24.54,54.81-54.81,54.81Z" style="fill: #13496d; stroke-width: 0px;"/>
      </g>
    </g>
  </g>
</svg>