<?xml version="1.0" encoding="UTF-8"?>
<svg id="Camada_2" data-name="Camada 2" xmlns="http://www.w3.org/2000/svg" viewBox="0 0 512.03 512.05">
  <g id="Camada_1-2" data-name="Camada 1">
    <g id="Layer_2" data-name="Layer 2">
      <g id="_08.whatsapp" data-name=" 08.whatsapp">
        <path id="background" d="M420.44,503.29c-109.27,11.66-219.46,11.66-328.73,0-43.72-4.62-78.29-39.13-82.97-82.85-11.66-109.27-11.66-219.46,0-328.73C13.36,47.99,47.88,13.42,91.59,8.74c109.27-11.66,219.46-11.66,328.73,0,43.72,4.62,78.29,39.13,82.97,82.85,11.66,109.27,11.66,219.46,0,328.73-4.62,43.72-39.13,78.29-82.85,82.97h0Z" style="fill: #29a71a; stroke-width: 0px;"/>
        <path id="shadow" d="M511.72,285.95c-.87,44.86-3.69,89.68-8.47,134.46-4.58,43.71-39.11,78.27-82.82,82.88-74.46,7.96-149.4,10.5-224.23,7.59l-97.51-97.57,33.05-92.36C76.87,27.94,368.89,143.14,368.89,143.14l142.84,142.81Z" style="fill: #1e8016; stroke-width: 0px;"/>
        <g id="icon">
          <path d="M368.89,143.14c-61.69-62.3-162.2-62.8-224.5-1.11-49.04,48.56-61.09,123.24-29.81,184.77l-16.84,81.77c-.35,1.65,0,3.36.96,4.74,1.43,2.12,4.03,3.13,6.52,2.53l80.15-19c78.5,39.02,173.76,7.01,212.78-71.49,30.19-60.75,18.44-133.97-29.24-182.22h0ZM343.9,342.59c-37.79,37.68-95.41,47.05-143.19,23.27l-11.17-5.53-49.13,11.64.15-.61,10.18-49.45-5.47-10.79c-24.42-47.96-15.19-106.2,22.87-144.26,48.54-48.53,127.23-48.53,175.77,0,.2.23.41.44.64.64,47.92,48.63,47.64,126.82-.64,175.1Z" style="fill: #fff; stroke-width: 0px;"/>
          <path d="M339.54,306.31c-6.02,9.48-15.53,21.09-27.49,23.97-20.95,5.06-53.09.17-93.09-37.12l-.49-.44c-35.17-32.61-44.31-59.75-42.09-81.28,1.22-12.22,11.4-23.27,19.99-30.49,4.8-4.1,12.02-3.53,16.12,1.27.73.85,1.32,1.8,1.77,2.83l12.95,29.09c1.71,3.84,1.17,8.32-1.43,11.64l-6.55,8.49c-2.87,3.59-3.28,8.56-1.02,12.57,3.67,6.43,12.45,15.88,22.2,24.64,10.94,9.89,23.07,18.94,30.75,22.02,4.2,1.72,9.03.7,12.19-2.56l7.59-7.65c2.98-2.94,7.32-4.05,11.35-2.91l30.75,8.73c6.14,1.88,9.6,8.39,7.71,14.54-.29.93-.69,1.82-1.2,2.66h0Z" style="fill: #fff; stroke-width: 0px;"/>
        </g>
      </g>
    </g>
  </g>
</svg>